<svg width="320" height="320" viewBox="0 0 320 320" fill="none" xmlns="http://www.w3.org/2000/svg">
<path d="M274.266 104.441C269.853 96.1807 263.419 89.7463 255.158 85.3117C246.854 80.8772 238.68 78.6165 217.008 78.6165H214.399L223.398 68.1171C228.095 62.6609 227.442 54.3787 221.986 49.7051C216.617 45.0966 208.422 45.6618 203.574 51.118L179.988 78.6382H140.316L116.6 50.9659C111.905 45.6618 103.709 45.0967 98.34 49.7268C92.8838 54.4222 92.2534 62.6826 96.9271 68.1388L105.927 78.6382H103.014C81.667 78.6382 73.3197 80.8989 65.3418 85.0943L64.8636 85.3552C56.6031 89.768 50.1686 96.2024 45.7559 104.485C41.3213 112.788 39.0605 120.984 39.0605 142.656V210.044C39.104 230.956 41.3648 239.194 45.495 247.107L45.7559 247.585C50.1686 255.845 56.6031 262.279 64.8636 266.715L65.6027 267.106C73.4936 271.192 81.7757 273.41 103.014 273.41H217.616C238.507 273.366 246.746 271.106 254.658 266.975L255.136 266.715C263.397 262.301 269.831 255.867 274.244 247.585C278.679 239.281 280.94 231.086 280.94 209.414V142.656C280.94 121.288 278.679 112.941 274.505 104.963L274.266 104.441ZM254.288 142.612V209.674C254.288 217.978 253.897 224.022 253.136 228.152L253.093 228.412C252.593 230.977 252.028 232.564 250.745 234.977C248.832 238.564 246.159 241.237 242.571 243.15C240.18 244.433 238.593 244.999 236.029 245.499C231.855 246.303 225.617 246.694 217.008 246.694H102.731C94.4272 246.694 88.3841 246.303 84.2756 245.542L84.0147 245.499C81.4497 244.999 79.8628 244.433 77.4716 243.15C73.8849 241.237 71.211 238.564 69.2981 234.977C68.0155 232.586 67.4504 230.999 66.9504 228.412C66.1896 224.456 65.7983 218.717 65.7548 210.848V142.308C65.7548 134.005 66.1462 127.961 66.907 123.831L66.9504 123.57C67.4504 121.005 68.0155 119.397 69.2981 117.006C71.211 113.419 73.8849 110.745 77.4716 108.832C79.8628 107.55 81.4497 106.984 84.0147 106.484C87.9494 105.724 93.6882 105.332 101.557 105.289H102.731H217.312C225.617 105.289 231.659 105.68 235.768 106.441L236.029 106.484C238.593 106.984 240.18 107.55 242.571 108.832C246.159 110.745 248.832 113.419 250.745 117.006C252.028 119.397 252.593 120.984 253.093 123.57C253.897 127.766 254.288 133.983 254.288 142.612Z" fill="black"/>
<path d="M117.314 142.243C126.922 142.243 134.704 150.025 134.704 159.634V192.24C134.704 201.848 126.922 209.63 117.314 209.63C107.706 209.63 99.9233 201.848 99.9233 192.24V159.634C99.9233 150.025 107.706 142.243 117.314 142.243Z" fill="black"/>
<path d="M204.267 142.243C213.876 142.243 221.658 150.025 221.658 159.634V192.24C221.658 201.848 213.876 209.63 204.267 209.63C194.66 209.63 186.877 201.848 186.877 192.24V159.634C186.877 150.025 194.66 142.243 204.267 142.243Z" fill="black"/>
<path d="M274.266 104.441C269.853 96.1807 263.419 89.7463 255.158 85.3117C246.854 80.8772 238.68 78.6165 217.008 78.6165H214.399L223.398 68.1171C228.095 62.6609 227.442 54.3787 221.986 49.7051C216.617 45.0966 208.422 45.6618 203.574 51.118L179.988 78.6382H140.316L116.6 50.9659C111.905 45.6618 103.709 45.0967 98.34 49.7268C92.8838 54.4222 92.2534 62.6826 96.9271 68.1388L105.927 78.6382H103.014C81.667 78.6382 73.3197 80.8989 65.3418 85.0943L64.8636 85.3552C56.6031 89.768 50.1686 96.2024 45.7559 104.485C41.3213 112.788 39.0605 120.984 39.0605 142.656V210.044C39.104 230.956 41.3648 239.194 45.495 247.107L45.7559 247.585C50.1686 255.845 56.6031 262.279 64.8636 266.715L65.6027 267.106C73.4936 271.192 81.7757 273.41 103.014 273.41H217.616C238.507 273.366 246.746 271.106 254.658 266.975L255.136 266.715C263.397 262.301 269.831 255.867 274.244 247.585C278.679 239.281 280.94 231.086 280.94 209.414V142.656C280.94 121.288 278.679 112.941 274.505 104.963L274.266 104.441ZM254.288 142.612V209.674C254.288 217.978 253.897 224.022 253.136 228.152L253.093 228.412C252.593 230.977 252.028 232.564 250.745 234.977C248.832 238.564 246.159 241.237 242.571 243.15C240.18 244.433 238.593 244.999 236.029 245.499C231.855 246.303 225.617 246.694 217.008 246.694H102.731C94.4272 246.694 88.3841 246.303 84.2756 245.542L84.0147 245.499C81.4497 244.999 79.8628 244.433 77.4716 243.15C73.8849 241.237 71.211 238.564 69.2981 234.977C68.0155 232.586 67.4504 230.999 66.9504 228.412C66.1896 224.456 65.7983 218.717 65.7548 210.848V142.308C65.7548 134.005 66.1462 127.961 66.907 123.831L66.9504 123.57C67.4504 121.005 68.0155 119.397 69.2981 117.006C71.211 113.419 73.8849 110.745 77.4716 108.832C79.8628 107.55 81.4497 106.984 84.0147 106.484C87.9494 105.724 93.6882 105.332 101.557 105.289H102.731H217.312C225.617 105.289 231.659 105.68 235.768 106.441L236.029 106.484C238.593 106.984 240.18 107.55 242.571 108.832C246.159 110.745 248.832 113.419 250.745 117.006C252.028 119.397 252.593 120.984 253.093 123.57C253.897 127.766 254.288 133.983 254.288 142.612Z" fill="black"/>
</svg>
