<svg width="320" height="320" viewBox="0 0 320 320" fill="none" xmlns="http://www.w3.org/2000/svg">
<path d="M289.44 59.5475C285.472 54.3913 279.337 53.3037 274.598 53.3413C269.632 53.3787 263.951 54.6237 257.996 56.54C246.188 60.3425 231.259 67.4712 214.579 77.0262C199.148 67.3138 180.9 61.6962 161.34 61.6962C105.941 61.6962 61.0276 106.767 61.0276 162.361C61.0276 173.427 62.8088 184.074 66.0938 194.034C55.1251 205.715 45.2663 217.257 38.3551 227.112C34.4251 232.719 31.1475 238.201 29.265 243.106C28.3238 245.555 27.5626 248.289 27.4501 251.086C27.3376 253.936 27.8963 257.409 30.24 260.45C33.5551 264.759 38.43 266.221 42.5325 266.566C46.6613 266.911 51.2288 266.266 55.8413 265.13C65.1338 262.839 76.7213 258.009 89.6663 251.371C115.684 238.025 148.793 216.507 182.951 190.032C217.114 163.554 246.225 136.846 265.669 114.954C275.34 104.064 282.923 94.0325 287.479 85.5875C289.744 81.395 291.517 77.1237 292.23 73.0288C292.931 68.96 292.755 63.8563 289.44 59.5475ZM272.01 77.18C268.399 83.87 261.844 92.7238 252.536 103.205C234.011 124.063 205.77 150.039 172.2 176.06C138.63 202.081 106.448 222.935 81.66 235.651C69.1988 242.041 59.0063 246.166 51.645 247.981C49.2075 248.585 47.3026 248.874 45.8738 248.967C47.0513 246.099 49.3125 242.165 52.7438 237.271C57.9825 229.801 65.3175 220.966 73.8338 211.614C75.8663 215.24 78.1125 218.724 80.5575 222.054C103.849 209.596 133.466 190.186 164.505 166.13C195.375 142.201 221.46 118.479 239.348 99.065C236.389 95.4012 233.183 91.9512 229.751 88.7412C243.165 81.3837 254.606 76.175 263.37 73.3513C268.534 71.69 272.261 71.0225 274.669 70.9962C274.275 72.4437 273.461 74.4875 272.01 77.18Z" fill="#231916"/>
<path d="M190.119 199.416C163.43 220.101 137.229 237.913 114.309 251.301C128.334 258.789 144.343 263.027 161.338 263.027C216.74 263.027 261.65 217.959 261.65 162.362C261.65 154.404 260.732 146.661 258.988 139.232C240.335 158.023 216.658 178.843 190.119 199.416Z" fill="#231916"/>
</svg>
